<mxfile host="app.diagrams.net" agent="Mozilla/5.0 (Windows NT 10.0; Win64; x64) AppleWebKit/537.36 (KHTML, like Gecko) Chrome/132.0.0.0 Safari/537.36" version="26.0.10">
  <diagram name="Page-1" id="znBex-t3JCokYXrDIwMZ">
    <mxGraphModel dx="2883" dy="1109" grid="1" gridSize="10" guides="1" tooltips="1" connect="1" arrows="1" fold="1" page="1" pageScale="1" pageWidth="850" pageHeight="1100" math="0" shadow="0">
      <root>
        <mxCell id="0" />
        <mxCell id="1" parent="0" />
        <mxCell id="eN66nPjex-dP4pKYYZGq-1" value="Wallet" style="swimlane;fontStyle=1;align=center;verticalAlign=top;childLayout=stackLayout;horizontal=1;startSize=26;horizontalStack=0;resizeParent=1;resizeParentMax=0;resizeLast=0;collapsible=1;marginBottom=0;whiteSpace=wrap;html=1;" parent="1" vertex="1">
          <mxGeometry x="420" y="130" width="300" height="220" as="geometry" />
        </mxCell>
        <mxCell id="eN66nPjex-dP4pKYYZGq-2" value="+ name: str&lt;div&gt;+ amount: float&lt;/div&gt;&lt;div&gt;+ fixed_deposit: double&lt;/div&gt;&lt;div&gt;+ _lock: Lock&lt;/div&gt;" style="text;strokeColor=none;fillColor=none;align=left;verticalAlign=top;spacingLeft=4;spacingRight=4;overflow=hidden;rotatable=0;points=[[0,0.5],[1,0.5]];portConstraint=eastwest;whiteSpace=wrap;html=1;" parent="eN66nPjex-dP4pKYYZGq-1" vertex="1">
          <mxGeometry y="26" width="300" height="94" as="geometry" />
        </mxCell>
        <mxCell id="eN66nPjex-dP4pKYYZGq-3" value="" style="line;strokeWidth=1;fillColor=none;align=left;verticalAlign=middle;spacingTop=-1;spacingLeft=3;spacingRight=3;rotatable=0;labelPosition=right;points=[];portConstraint=eastwest;strokeColor=inherit;" parent="eN66nPjex-dP4pKYYZGq-1" vertex="1">
          <mxGeometry y="120" width="300" height="8" as="geometry" />
        </mxCell>
        <mxCell id="eN66nPjex-dP4pKYYZGq-4" value="+ deposit(amount: int)&lt;div&gt;+ make_fixed_deposit(amount: int)&lt;/div&gt;&lt;div&gt;+ withdraw(amount: int)&lt;/div&gt;&lt;div&gt;+ start_fixed_deposit(wallet: Wallet, amount: double)&lt;/div&gt;" style="text;strokeColor=none;fillColor=none;align=left;verticalAlign=top;spacingLeft=4;spacingRight=4;overflow=hidden;rotatable=0;points=[[0,0.5],[1,0.5]];portConstraint=eastwest;whiteSpace=wrap;html=1;" parent="eN66nPjex-dP4pKYYZGq-1" vertex="1">
          <mxGeometry y="128" width="300" height="92" as="geometry" />
        </mxCell>
        <mxCell id="eN66nPjex-dP4pKYYZGq-5" value="Transaction" style="swimlane;fontStyle=1;align=center;verticalAlign=top;childLayout=stackLayout;horizontal=1;startSize=26;horizontalStack=0;resizeParent=1;resizeParentMax=0;resizeLast=0;collapsible=1;marginBottom=0;whiteSpace=wrap;html=1;" parent="1" vertex="1">
          <mxGeometry x="800" y="680" width="220" height="98" as="geometry" />
        </mxCell>
        <mxCell id="eN66nPjex-dP4pKYYZGq-6" value="+ amount: int&lt;div&gt;+ from_wallet: str&lt;/div&gt;&lt;div&gt;+ t_wallet: st&lt;/div&gt;&lt;div&gt;+ transaction_type: TransactionType&lt;/div&gt;" style="text;strokeColor=none;fillColor=none;align=left;verticalAlign=top;spacingLeft=4;spacingRight=4;overflow=hidden;rotatable=0;points=[[0,0.5],[1,0.5]];portConstraint=eastwest;whiteSpace=wrap;html=1;" parent="eN66nPjex-dP4pKYYZGq-5" vertex="1">
          <mxGeometry y="26" width="220" height="64" as="geometry" />
        </mxCell>
        <mxCell id="eN66nPjex-dP4pKYYZGq-7" value="" style="line;strokeWidth=1;fillColor=none;align=left;verticalAlign=middle;spacingTop=-1;spacingLeft=3;spacingRight=3;rotatable=0;labelPosition=right;points=[];portConstraint=eastwest;strokeColor=inherit;" parent="eN66nPjex-dP4pKYYZGq-5" vertex="1">
          <mxGeometry y="90" width="220" height="8" as="geometry" />
        </mxCell>
        <mxCell id="eN66nPjex-dP4pKYYZGq-9" value="TransactionManager" style="swimlane;fontStyle=1;align=center;verticalAlign=top;childLayout=stackLayout;horizontal=1;startSize=26;horizontalStack=0;resizeParent=1;resizeParentMax=0;resizeLast=0;collapsible=1;marginBottom=0;whiteSpace=wrap;html=1;" parent="1" vertex="1">
          <mxGeometry x="360" y="620" width="340" height="190" as="geometry" />
        </mxCell>
        <mxCell id="eN66nPjex-dP4pKYYZGq-10" value="+ transactions:Dict[str, List[Transaction]]&lt;div&gt;+ _lock: threading.Lock&lt;/div&gt;" style="text;strokeColor=none;fillColor=none;align=left;verticalAlign=top;spacingLeft=4;spacingRight=4;overflow=hidden;rotatable=0;points=[[0,0.5],[1,0.5]];portConstraint=eastwest;whiteSpace=wrap;html=1;" parent="eN66nPjex-dP4pKYYZGq-9" vertex="1">
          <mxGeometry y="26" width="340" height="64" as="geometry" />
        </mxCell>
        <mxCell id="eN66nPjex-dP4pKYYZGq-11" value="" style="line;strokeWidth=1;fillColor=none;align=left;verticalAlign=middle;spacingTop=-1;spacingLeft=3;spacingRight=3;rotatable=0;labelPosition=right;points=[];portConstraint=eastwest;strokeColor=inherit;" parent="eN66nPjex-dP4pKYYZGq-9" vertex="1">
          <mxGeometry y="90" width="340" height="8" as="geometry" />
        </mxCell>
        <mxCell id="eN66nPjex-dP4pKYYZGq-12" value="+&amp;nbsp;&lt;span style=&quot;background-color: transparent; color: light-dark(rgb(0, 0, 0), rgb(255, 255, 255));&quot;&gt;record_transaction(Transaction)&lt;/span&gt;&lt;div&gt;+ get_transaction_history(name) -&amp;gt; List[Transaction]&lt;/div&gt;&lt;div&gt;+ process_transaction(Transaction)&lt;/div&gt;&lt;div&gt;+ apply_offer2()&lt;/div&gt;" style="text;strokeColor=none;fillColor=none;align=left;verticalAlign=top;spacingLeft=4;spacingRight=4;overflow=hidden;rotatable=0;points=[[0,0.5],[1,0.5]];portConstraint=eastwest;whiteSpace=wrap;html=1;" parent="eN66nPjex-dP4pKYYZGq-9" vertex="1">
          <mxGeometry y="98" width="340" height="92" as="geometry" />
        </mxCell>
        <mxCell id="eN66nPjex-dP4pKYYZGq-13" value="DigitalWalletSystem" style="swimlane;fontStyle=1;align=center;verticalAlign=top;childLayout=stackLayout;horizontal=1;startSize=26;horizontalStack=0;resizeParent=1;resizeParentMax=0;resizeLast=0;collapsible=1;marginBottom=0;whiteSpace=wrap;html=1;" parent="1" vertex="1">
          <mxGeometry x="-180" y="606" width="400" height="218" as="geometry" />
        </mxCell>
        <mxCell id="eN66nPjex-dP4pKYYZGq-14" value="+ wallet_manager: Walletmanager&lt;div&gt;+ transactionManager: TransactionManager&lt;/div&gt;&lt;div&gt;+ _lock: Lock&lt;/div&gt;" style="text;strokeColor=none;fillColor=none;align=left;verticalAlign=top;spacingLeft=4;spacingRight=4;overflow=hidden;rotatable=0;points=[[0,0.5],[1,0.5]];portConstraint=eastwest;whiteSpace=wrap;html=1;" parent="eN66nPjex-dP4pKYYZGq-13" vertex="1">
          <mxGeometry y="26" width="400" height="94" as="geometry" />
        </mxCell>
        <mxCell id="eN66nPjex-dP4pKYYZGq-15" value="" style="line;strokeWidth=1;fillColor=none;align=left;verticalAlign=middle;spacingTop=-1;spacingLeft=3;spacingRight=3;rotatable=0;labelPosition=right;points=[];portConstraint=eastwest;strokeColor=inherit;" parent="eN66nPjex-dP4pKYYZGq-13" vertex="1">
          <mxGeometry y="120" width="400" height="8" as="geometry" />
        </mxCell>
        <mxCell id="eN66nPjex-dP4pKYYZGq-16" value="+ create_wallet(name: str, amount: int)&lt;div&gt;+ get_overview()&lt;/div&gt;&lt;div&gt;+ get_statement(name: str)&lt;/div&gt;&lt;div&gt;+ transfer_money(from_wallet_name, to_wallet_name, amount: float)&lt;/div&gt;&lt;div&gt;+ start_fixed_deposit(name: str, amount: int)&lt;/div&gt;" style="text;strokeColor=none;fillColor=none;align=left;verticalAlign=top;spacingLeft=4;spacingRight=4;overflow=hidden;rotatable=0;points=[[0,0.5],[1,0.5]];portConstraint=eastwest;whiteSpace=wrap;html=1;" parent="eN66nPjex-dP4pKYYZGq-13" vertex="1">
          <mxGeometry y="128" width="400" height="90" as="geometry" />
        </mxCell>
        <mxCell id="eN66nPjex-dP4pKYYZGq-21" value="" style="endArrow=diamondThin;endFill=1;endSize=24;html=1;rounded=0;entryX=1.004;entryY=0.883;entryDx=0;entryDy=0;entryPerimeter=0;exitX=0.009;exitY=1.047;exitDx=0;exitDy=0;exitPerimeter=0;" parent="1" source="eN66nPjex-dP4pKYYZGq-10" target="eN66nPjex-dP4pKYYZGq-14" edge="1">
          <mxGeometry width="160" relative="1" as="geometry">
            <mxPoint x="340" y="570" as="sourcePoint" />
            <mxPoint x="500" y="570" as="targetPoint" />
          </mxGeometry>
        </mxCell>
        <mxCell id="eN66nPjex-dP4pKYYZGq-23" value="" style="endArrow=diamondThin;endFill=1;endSize=24;html=1;rounded=0;entryX=1.009;entryY=0.022;entryDx=0;entryDy=0;entryPerimeter=0;exitX=0.011;exitY=0.234;exitDx=0;exitDy=0;exitPerimeter=0;" parent="1" source="eN66nPjex-dP4pKYYZGq-6" target="eN66nPjex-dP4pKYYZGq-12" edge="1">
          <mxGeometry width="160" relative="1" as="geometry">
            <mxPoint x="340" y="570" as="sourcePoint" />
            <mxPoint x="500" y="570" as="targetPoint" />
          </mxGeometry>
        </mxCell>
        <mxCell id="eN66nPjex-dP4pKYYZGq-24" value="WalletManager" style="swimlane;fontStyle=1;align=center;verticalAlign=top;childLayout=stackLayout;horizontal=1;startSize=26;horizontalStack=0;resizeParent=1;resizeParentMax=0;resizeLast=0;collapsible=1;marginBottom=0;whiteSpace=wrap;html=1;" parent="1" vertex="1">
          <mxGeometry x="-50" y="140" width="310" height="270" as="geometry" />
        </mxCell>
        <mxCell id="eN66nPjex-dP4pKYYZGq-25" value="+ name_to_wallet: Dict[str, Wallet]&lt;div&gt;+ _lock: Lock&lt;/div&gt;" style="text;strokeColor=none;fillColor=none;align=left;verticalAlign=top;spacingLeft=4;spacingRight=4;overflow=hidden;rotatable=0;points=[[0,0.5],[1,0.5]];portConstraint=eastwest;whiteSpace=wrap;html=1;" parent="eN66nPjex-dP4pKYYZGq-24" vertex="1">
          <mxGeometry y="26" width="310" height="26" as="geometry" />
        </mxCell>
        <mxCell id="eN66nPjex-dP4pKYYZGq-26" value="" style="line;strokeWidth=1;fillColor=none;align=left;verticalAlign=middle;spacingTop=-1;spacingLeft=3;spacingRight=3;rotatable=0;labelPosition=right;points=[];portConstraint=eastwest;strokeColor=inherit;" parent="eN66nPjex-dP4pKYYZGq-24" vertex="1">
          <mxGeometry y="52" width="310" height="8" as="geometry" />
        </mxCell>
        <mxCell id="eN66nPjex-dP4pKYYZGq-27" value="+ get_wallet(name: str) -&amp;gt; Wallet&lt;div&gt;+ create_wallet(name: str, amount: float)&lt;/div&gt;&lt;div&gt;+ start_fixed_deposit(wallet: wallet, amount: double)&lt;/div&gt;&lt;div&gt;+ get_overview():&lt;/div&gt;&lt;div&gt;+ deposit(wallet: Wallet, amount: float)&lt;/div&gt;&lt;div&gt;+ withdraw(wallet: Wallet, amount: float)&lt;/div&gt;" style="text;strokeColor=none;fillColor=none;align=left;verticalAlign=top;spacingLeft=4;spacingRight=4;overflow=hidden;rotatable=0;points=[[0,0.5],[1,0.5]];portConstraint=eastwest;whiteSpace=wrap;html=1;" parent="eN66nPjex-dP4pKYYZGq-24" vertex="1">
          <mxGeometry y="60" width="310" height="210" as="geometry" />
        </mxCell>
        <mxCell id="eN66nPjex-dP4pKYYZGq-28" value="" style="endArrow=diamondThin;endFill=1;endSize=24;html=1;rounded=0;exitX=0.458;exitY=1.02;exitDx=0;exitDy=0;exitPerimeter=0;" parent="1" source="eN66nPjex-dP4pKYYZGq-27" edge="1">
          <mxGeometry width="160" relative="1" as="geometry">
            <mxPoint x="340" y="570" as="sourcePoint" />
            <mxPoint x="90" y="600" as="targetPoint" />
          </mxGeometry>
        </mxCell>
        <mxCell id="eN66nPjex-dP4pKYYZGq-29" value="" style="endArrow=diamondThin;endFill=1;endSize=24;html=1;rounded=0;exitX=0.988;exitY=0.18;exitDx=0;exitDy=0;exitPerimeter=0;entryX=0.013;entryY=0.915;entryDx=0;entryDy=0;entryPerimeter=0;" parent="1" source="eN66nPjex-dP4pKYYZGq-27" target="eN66nPjex-dP4pKYYZGq-2" edge="1">
          <mxGeometry width="160" relative="1" as="geometry">
            <mxPoint x="340" y="570" as="sourcePoint" />
            <mxPoint x="500" y="570" as="targetPoint" />
            <Array as="points" />
          </mxGeometry>
        </mxCell>
        <mxCell id="sEcFEtb9fCh01ciN_zIE-6" style="edgeStyle=orthogonalEdgeStyle;rounded=0;orthogonalLoop=1;jettySize=auto;html=1;" edge="1" parent="1" source="sEcFEtb9fCh01ciN_zIE-1">
          <mxGeometry relative="1" as="geometry">
            <mxPoint x="900" y="780" as="targetPoint" />
          </mxGeometry>
        </mxCell>
        <mxCell id="sEcFEtb9fCh01ciN_zIE-1" value="TransactionType" style="swimlane;fontStyle=0;childLayout=stackLayout;horizontal=1;startSize=26;fillColor=none;horizontalStack=0;resizeParent=1;resizeParentMax=0;resizeLast=0;collapsible=1;marginBottom=0;whiteSpace=wrap;html=1;" vertex="1" parent="1">
          <mxGeometry x="830" y="860" width="140" height="104" as="geometry" />
        </mxCell>
        <mxCell id="sEcFEtb9fCh01ciN_zIE-2" value="+ TRANSACTION" style="text;strokeColor=none;fillColor=none;align=left;verticalAlign=top;spacingLeft=4;spacingRight=4;overflow=hidden;rotatable=0;points=[[0,0.5],[1,0.5]];portConstraint=eastwest;whiteSpace=wrap;html=1;" vertex="1" parent="sEcFEtb9fCh01ciN_zIE-1">
          <mxGeometry y="26" width="140" height="26" as="geometry" />
        </mxCell>
        <mxCell id="sEcFEtb9fCh01ciN_zIE-3" value="+ CREDIT" style="text;strokeColor=none;fillColor=none;align=left;verticalAlign=top;spacingLeft=4;spacingRight=4;overflow=hidden;rotatable=0;points=[[0,0.5],[1,0.5]];portConstraint=eastwest;whiteSpace=wrap;html=1;" vertex="1" parent="sEcFEtb9fCh01ciN_zIE-1">
          <mxGeometry y="52" width="140" height="26" as="geometry" />
        </mxCell>
        <mxCell id="sEcFEtb9fCh01ciN_zIE-4" value="+ DEBIT" style="text;strokeColor=none;fillColor=none;align=left;verticalAlign=top;spacingLeft=4;spacingRight=4;overflow=hidden;rotatable=0;points=[[0,0.5],[1,0.5]];portConstraint=eastwest;whiteSpace=wrap;html=1;" vertex="1" parent="sEcFEtb9fCh01ciN_zIE-1">
          <mxGeometry y="78" width="140" height="26" as="geometry" />
        </mxCell>
      </root>
    </mxGraphModel>
  </diagram>
</mxfile>
